<svg width="218" height="234" viewBox="0 0 218 234" fill="none" xmlns="http://www.w3.org/2000/svg">
<g clip-path="url(#clip0_52_2583)">
<path d="M205.072 178.161H41.2079C38.1679 178.158 35.7044 175.701 35.7008 172.669V39.6012C35.7044 36.5693 38.1679 34.1124 41.2079 34.1089H205.072C208.112 34.1124 210.575 36.5693 210.579 39.6012V172.669C210.575 175.701 208.112 178.158 205.072 178.161Z" fill="#E6E6E6"/>
<path d="M189.15 174.457H44.9235C41.8834 174.453 39.4199 171.996 39.4164 168.964V43.3087C39.4199 40.2769 41.8834 37.82 44.9235 37.8165H201.357C204.397 37.82 206.861 40.2769 206.864 43.3087V156.79C206.853 166.543 198.929 174.446 189.15 174.457Z" fill="white"/>
<path d="M149.517 66.2293H83.6563C82.8719 66.2293 82.2361 65.5951 82.2361 64.8129C82.2361 64.0306 82.8719 63.3964 83.6563 63.3964H149.517C150.301 63.3964 150.937 64.0306 150.937 64.8129C150.937 65.5952 150.301 66.2293 149.517 66.2293Z" fill="#191080"/>
<path d="M182.857 81.342H83.6563C82.8719 81.342 82.2361 80.7078 82.2361 79.9255C82.2361 79.1432 82.8719 78.5091 83.6563 78.5091H182.857C183.641 78.5091 184.277 79.1432 184.277 79.9255C184.277 80.7078 183.641 81.342 182.857 81.342Z" fill="#E6E6E6"/>
<path d="M182.857 96.4547H83.6563C82.8719 96.4547 82.2361 95.8205 82.2361 95.0382C82.2361 94.2559 82.8719 93.6217 83.6563 93.6217H182.857C183.641 93.6217 184.277 94.2559 184.277 95.0382C184.277 95.8205 183.641 96.4547 182.857 96.4547Z" fill="#E6E6E6"/>
<path d="M182.857 111.567H83.6563C82.8719 111.567 82.2361 110.933 82.2361 110.151C82.2361 109.369 82.8719 108.734 83.6563 108.734H182.857C183.641 108.734 184.277 109.369 184.277 110.151C184.277 110.933 183.641 111.567 182.857 111.567Z" fill="#E6E6E6"/>
<path d="M182.857 126.68H83.6563C82.8719 126.68 82.2361 126.046 82.2361 125.264C82.2361 124.481 82.8719 123.847 83.6563 123.847H182.857C183.641 123.847 184.277 124.481 184.277 125.264C184.277 126.046 183.641 126.68 182.857 126.68Z" fill="#E6E6E6"/>
<path d="M178.396 150.763C174.424 150.763 171.204 147.552 171.204 143.591C171.204 139.629 174.424 136.418 178.396 136.418C182.368 136.418 185.588 139.629 185.588 143.591C185.588 147.552 182.368 150.763 178.396 150.763Z" fill="#191080"/>
<path d="M182.442 143.25L180.403 140.282C180.215 140.007 179.839 139.936 179.563 140.123C179.287 140.311 179.216 140.686 179.404 140.961L179.405 140.964L180.724 142.883H175.558C175.166 142.882 174.848 143.198 174.847 143.589C174.846 143.979 175.162 144.297 175.554 144.298H180.789L179.405 146.312C179.218 146.588 179.29 146.963 179.566 147.15C179.841 147.336 180.214 147.266 180.403 146.994L182.442 144.026C182.577 143.785 182.577 143.491 182.442 143.25Z" fill="white"/>
<path d="M217.284 14.4853H28.9961C28.5924 14.4767 28.272 14.1433 28.2807 13.7407C28.289 13.3501 28.6045 13.0355 28.9961 13.0272H217.284C217.688 13.0358 218.008 13.3692 218 13.7718C217.991 14.1624 217.676 14.477 217.284 14.4853Z" fill="#CACACA"/>
<path d="M52.5594 158.216C53.6481 157.307 53.7923 155.691 52.8815 154.605C52.7843 154.489 52.6771 154.382 52.5611 154.285L51.0019 140.848L46.0511 141.991L48.8024 154.728C47.96 155.877 48.2111 157.49 49.3632 158.33C50.3272 159.033 51.6485 158.986 52.5594 158.216Z" fill="#FFB6B6"/>
<path d="M52.0478 143.039L46.3162 146.605C46.3162 146.605 45.9673 148.695 45.5732 143.443C45.532 142.894 45.9156 141.939 45.8734 141.377C45.8258 140.742 44.0025 140.453 43.9545 139.811C43.9203 139.353 44.4474 138.947 44.4134 138.491C44.3618 137.8 44.3106 137.113 44.2603 136.437C44.2182 135.872 43.5903 135.513 43.5498 134.968C43.509 134.417 44.0557 133.68 44.0171 133.159C43.7282 129.249 44.7273 119.412 44.7273 119.211C44.6501 118.709 44.4398 118.237 44.1182 117.843L44.4241 116.93L44.2218 115.218C43.956 112.968 44.4303 110.693 45.5732 108.735L47.0288 107.785L53.7453 119.051C50.9189 128.801 49.0739 132.63 52.0478 143.039Z" fill="#191080"/>
<path d="M47.5754 227.045H51.0426L52.6928 213.707H47.5754V227.045Z" fill="#FFB6B6"/>
<path d="M46.444 224.677L51.9833 224.347V226.714L57.2496 230.341C57.9234 230.805 58.0925 231.726 57.6273 232.398C57.3505 232.798 56.8944 233.036 56.4073 233.036H49.8125L48.6758 230.695L48.232 233.036H45.7455L46.444 224.677Z" fill="#2F2E41"/>
<path d="M67.0516 227.045H70.5187L72.1686 213.707H67.0516V227.045Z" fill="#FFB6B6"/>
<path d="M65.9199 224.677L71.4592 224.347V226.714L76.7255 230.341C77.3993 230.805 77.5683 231.726 77.1032 232.398C76.8264 232.798 76.3703 233.036 75.8832 233.036H69.2884L68.1517 230.695L67.7079 233.036H65.2214L65.9199 224.677Z" fill="#2F2E41"/>
<path d="M46.1038 215.543H46.1173L46.7841 183.78C45.9077 182.094 45.9356 180.082 46.8587 178.421L46.9542 178.249L46.7066 177.105C46.3887 175.635 46.5346 174.102 47.1243 172.718L47.7464 152.489C45.5239 138.124 56.1153 128.757 56.1153 128.757H71.9813L75.3876 140.428C77.6394 162.308 77.2308 193.706 73.6575 214.362L73.7549 214.411C74.1387 214.625 74.2867 215.101 74.091 215.494C73.9259 215.971 73.5077 216.26 73.1569 216.139L64.7779 215.848C64.394 215.635 64.2461 215.158 64.4417 214.766C64.6068 214.289 65.0251 214 65.3758 214.121L65.9456 214.408L65.3577 213.215C64.6367 211.751 64.7761 210.011 65.7211 208.68L65.6181 206.053C64.7273 205.012 64.4312 203.59 64.833 202.282L65.3982 200.442L64.7305 183.405L64.8654 179.582L64.5876 175.246L63.3032 155.741L58.4418 179.727L53.4759 215.785C53.719 216.003 53.8257 216.335 53.7553 216.654C53.6499 217.082 53.2612 217.38 52.8196 217.371H46.0796C45.5725 217.371 45.1618 216.96 45.1622 216.454C45.1623 216.372 45.1735 216.291 45.1953 216.212C45.3123 215.81 45.6844 215.536 46.1038 215.543Z" fill="#2F2E41"/>
<path d="M84.6602 152.994C85.556 151.896 85.3895 150.282 84.2884 149.388C84.171 149.293 84.0454 149.208 83.913 149.135L79.8221 136.238L75.1793 138.299L80.3073 150.283C79.6991 151.57 80.2528 153.106 81.544 153.712C82.6243 154.22 83.9126 153.923 84.6602 152.994Z" fill="#FFB6B6"/>
<path d="M67.8267 111.995C67.8267 111.995 72.4924 128.461 72.2811 130.125C71.8454 133.555 50.405 144.099 48.8105 139.407L49.0104 137.865C48.2048 136.258 53.1194 129.881 53.358 129.047C53.6611 127.981 52.2886 124.479 52.2886 124.479C52.2886 124.479 53.2373 121.282 53.0858 119.303C52.9314 117.324 52.4739 117.629 50.7955 116.409C49.117 115.191 46.3692 109.559 46.3692 109.559C46.3692 109.559 47.5902 104.079 47.5902 103.012C47.5902 101.946 52.6058 100.129 53.2149 99.5216C53.48 99.1687 53.7032 98.7864 53.8801 98.3823C54.0036 98.136 53.925 97.565 54.0569 97.2822C54.1411 97.0975 54.4358 97.2123 54.5228 97.0219C54.607 96.8372 54.5341 96.6245 54.6182 96.4425C54.7277 96.2018 54.9915 95.9918 55.0954 95.7651C55.5725 94.7238 55.9795 93.8757 56.1058 93.8757C56.4089 93.8757 66.182 95.2473 66.182 95.2473C66.7139 96.0677 67.327 96.8329 68.012 97.5314C69.0814 98.5951 74.0858 101.184 74.0858 101.184L67.8267 111.995Z" fill="#191080"/>
<path d="M81.0233 139.697C80.2599 140.459 76.4822 143.954 76.3278 143.039C76.1762 142.127 76.0937 142.018 75.4818 141.715C74.87 141.41 74.87 141.259 74.7184 140.192C74.5668 139.126 73.1916 138.059 73.3459 137.603C73.4975 137.147 73.356 137.727 73.356 137.268C73.356 136.812 72.8985 135.138 72.2866 134.833C71.6776 134.528 70.7598 134.226 71.2201 133.464C71.6776 132.703 66.9117 109.862 66.9117 109.862L71.1864 101.489L74.0857 101.184C74.0857 101.184 74.9667 101.687 75.2428 106.219C75.2568 106.449 75.5077 106.87 75.5184 107.121C75.5273 107.329 75.2964 107.364 75.3028 107.587C75.3041 107.635 75.3055 107.683 75.3067 107.732C75.3125 107.954 75.9141 108.117 75.9231 108.332C75.9393 108.715 76.1756 111.159 76.201 111.518C76.2297 111.923 76.2636 112.313 76.3027 112.688C76.7246 116.772 76.8757 117.117 77.1371 118.421C77.5418 120.439 79.2193 132.224 79.2193 132.224C79.2193 132.224 80.4402 132.527 80.4402 133.593C80.4402 134.66 81.7868 136.803 81.1777 138.021C80.5658 139.241 81.7868 138.936 81.0233 139.697Z" fill="#191080"/>
<path d="M60.2445 93.5631C64.2435 93.5631 67.4854 90.3299 67.4854 86.3417C67.4854 82.3534 64.2435 79.1203 60.2445 79.1203C56.2454 79.1203 53.0035 82.3534 53.0035 86.3417C53.0035 90.3299 56.2454 93.5631 60.2445 93.5631Z" fill="#FFB8B8"/>
<path d="M44.6407 101.518C43.1085 100.977 41.5762 100.434 40.0439 99.8905C40.308 99.4485 40.6443 99.0537 41.039 98.7224C42.4979 97.5075 44.5116 97.2879 46.3639 96.8781C48.219 96.4682 50.2327 95.628 50.9108 93.8598C51.6153 92.0213 50.5938 90.0365 50.0008 88.1629C49.1251 85.5349 49.2314 82.6798 50.3003 80.1239C51.407 77.5653 53.6459 75.6669 56.356 74.9891C59.039 74.3948 62.0713 75.3638 63.721 77.5536C65.9207 76.8955 68.2667 77.9787 69.1868 80.0771C69.6112 81.0411 69.5457 82.1497 69.0107 83.0573C68.4383 83.9209 67.2142 84.363 66.2925 83.8829L66.8267 82.5304C65.174 83.0895 64.0997 86.0697 64.3228 87.7969C64.5429 89.5213 65.5527 91.0318 66.5772 92.44C67.6017 93.8481 68.6936 95.2709 69.1339 96.9542C69.768 99.3752 68.9108 102.022 67.3257 103.963C65.7406 105.904 63.5067 107.221 61.1936 108.19C59.4621 108.916 57.6627 109.469 55.8218 109.841C56.1506 109.203 56.4764 108.565 56.8052 107.926L52.904 110.28C52.1496 110.353 51.3893 110.397 50.629 110.412C48.4157 110.45 46.1584 110.219 44.1329 109.338C42.1046 108.453 40.3228 106.852 39.5889 104.771C39.3536 104.097 39.2423 103.387 39.2602 102.675C41.0537 102.288 42.8472 101.903 44.6407 101.518Z" fill="#2F2E41"/>
<path d="M114.615 233.586H101.185L101.127 233.482C100.956 233.171 100.79 232.842 100.635 232.504C99.2517 229.551 98.6671 226.173 98.1512 223.192L97.7627 220.946C97.6321 220.191 98.1399 219.473 98.8969 219.343C99.2674 219.28 99.648 219.368 99.952 219.589C101.993 221.07 104.035 222.55 106.077 224.028C106.85 224.589 107.734 225.239 108.58 225.94C108.661 225.545 108.747 225.149 108.832 224.758C108.995 224.009 109.737 223.533 110.488 223.696C110.855 223.776 111.175 224.001 111.374 224.319L112.945 226.837C114.091 228.676 115.102 230.487 114.896 232.441C114.897 232.465 114.895 232.489 114.891 232.512C114.85 232.833 114.773 233.149 114.663 233.453L114.615 233.586Z" fill="#F0F0F0"/>
<path d="M128.094 233.876L0.479326 234C0.213221 233.999 -0.0013773 233.782 6.65645e-06 233.517C0.00139061 233.254 0.215184 233.04 0.479326 233.039L128.094 232.915C128.36 232.916 128.575 233.133 128.573 233.398C128.572 233.661 128.358 233.875 128.094 233.876Z" fill="#CACACA"/>
<path d="M36.3736 6.97786C38.2636 6.97786 39.7957 5.41581 39.7957 3.48893C39.7957 1.56205 38.2636 0 36.3736 0C34.4836 0 32.9515 1.56205 32.9515 3.48893C32.9515 5.41581 34.4836 6.97786 36.3736 6.97786Z" fill="#3F3D56"/>
<path d="M48.1954 6.97786C50.0854 6.97786 51.6175 5.41581 51.6175 3.48893C51.6175 1.56205 50.0854 0 48.1954 0C46.3054 0 44.7733 1.56205 44.7733 3.48893C44.7733 5.41581 46.3054 6.97786 48.1954 6.97786Z" fill="#3F3D56"/>
<path d="M60.0172 6.97786C61.9072 6.97786 63.4393 5.41581 63.4393 3.48893C63.4393 1.56205 61.9072 0 60.0172 0C58.1272 0 56.5951 1.56205 56.5951 3.48893C56.5951 5.41581 58.1272 6.97786 60.0172 6.97786Z" fill="#3F3D56"/>
<path d="M73.4972 6.24646C73.3921 6.24646 73.2872 6.20586 73.208 6.12507L70.8989 3.77102C70.745 3.61416 70.745 3.3635 70.8989 3.20664L73.208 0.852787C73.3647 0.693565 73.6211 0.691002 73.7802 0.846483C73.94 1.00236 73.9428 1.25794 73.7865 1.41716L71.7543 3.48883L73.7865 5.5607C73.9428 5.71992 73.94 5.9755 73.7802 6.13138C73.7015 6.20823 73.5994 6.24646 73.4972 6.24646Z" fill="#3F3D56"/>
<path d="M77.3773 6.24648C77.2752 6.24648 77.173 6.20825 77.0944 6.1314C76.9345 5.97552 76.9317 5.72014 77.088 5.56072L79.1201 3.48885L77.088 1.41718C76.9318 1.25796 76.9345 1.00238 77.0944 0.846504C77.2538 0.690434 77.5103 0.693392 77.6666 0.852808L79.9754 3.20666C80.1294 3.36352 80.1294 3.61418 79.9754 3.77104L77.6666 6.12509C77.5874 6.20589 77.4824 6.24648 77.3773 6.24648Z" fill="#3F3D56"/>
<path d="M198.174 0.403931H193.881C193.391 0.403931 192.994 0.799426 192.994 1.28776V5.57372C192.994 6.06205 193.391 6.45755 193.881 6.45755H198.174C198.664 6.45755 199.064 6.06205 199.064 5.57372V1.28776C199.064 0.799426 198.664 0.403931 198.174 0.403931Z" fill="#3F3D56"/>
<path d="M187.653 0.403931H183.359C182.87 0.403931 182.473 0.799426 182.473 1.28776V5.57372C182.473 6.06205 182.87 6.45755 183.359 6.45755H187.653C188.142 6.45755 188.543 6.06205 188.543 5.57372V1.28776C188.543 0.799426 188.142 0.403931 187.653 0.403931Z" fill="#3F3D56"/>
<path d="M208.088 0.605713H203.795C203.305 0.605713 202.909 1.00121 202.909 1.48954V5.7755C202.909 6.26383 203.305 6.65933 203.795 6.65933H208.088C208.578 6.65933 208.979 6.26383 208.979 5.7755V1.48954C208.979 1.00121 208.578 0.605713 208.088 0.605713Z" fill="#3F3D56"/>
<path d="M143.374 2.23615H109.054C108.455 2.23615 107.973 2.72044 107.973 3.3137C107.973 3.90697 108.455 4.39124 109.054 4.39124H143.374C143.968 4.39124 144.454 3.90695 144.454 3.3137C144.454 2.72046 143.968 2.23615 143.374 2.23615Z" fill="#3F3D56"/>
</g>
<defs>
<clipPath id="clip0_52_2583">
<rect width="218" height="234" fill="white"/>
</clipPath>
</defs>
</svg>
