<svg width="489" height="320" viewBox="0 0 489 320" fill="none" xmlns="http://www.w3.org/2000/svg">
<g clip-path="url(#clip0_34_2)">
<path d="M451.174 154.52H54.6493C49.3343 154.52 45.0103 150.199 45.0103 144.888V9.63157C45.0103 4.32069 49.3343 0 54.6493 0H451.174C456.489 0 460.813 4.32069 460.813 9.63157V144.888C460.813 150.199 456.489 154.52 451.174 154.52ZM54.6493 1.1483C49.9681 1.1483 46.1594 4.954 46.1594 9.63157V144.888C46.1594 149.566 49.9681 153.372 54.6493 153.372H451.174C455.856 153.372 459.664 149.566 459.664 144.888V9.63157C459.664 4.954 455.856 1.1483 451.174 1.1483H54.6493Z" fill="#3F3D56"/>
<path d="M489 316.102H0V317.068H489V316.102Z" fill="#E6E6E6"/>
<path d="M489 266.725H0V267.691H489V266.725Z" fill="#E6E6E6"/>
<path d="M222.851 159.494C223.202 163.904 225.764 167.297 228.572 167.073C231.38 166.849 233.371 163.094 233.02 158.683C232.903 156.919 232.366 155.208 231.452 153.695L229.728 135.03L220.98 136.026L223.609 154.319C222.946 155.959 222.686 157.734 222.851 159.494Z" fill="#FFB6B6"/>
<path d="M212.401 72.4193C212.401 72.4193 220.578 68.0937 224.725 74.5577C228.871 81.0217 231.733 150.932 231.733 150.932L220.24 152.158L218.061 102.894L212.401 72.4193Z" fill="#E6E6E6"/>
<path d="M195.428 263.077L202.086 263.077L205.253 237.415L195.426 237.416L195.428 263.077Z" fill="#FFB6B6"/>
<path d="M218.239 262.927C218.446 263.275 218.556 264.401 218.556 264.807C218.556 266.054 217.544 267.065 216.296 267.065H195.677C194.825 267.065 194.135 266.375 194.135 265.525V264.667C194.135 264.667 193.115 262.089 195.215 258.911C195.215 258.911 197.825 261.399 201.725 257.502L202.875 255.42L211.201 261.504L215.815 262.072C216.825 262.196 217.72 262.053 218.239 262.927Z" fill="#2F2E41"/>
<path d="M233.957 261.976L240.408 260.329L237.12 234.683L227.599 237.113L233.957 261.976Z" fill="#FFB6B6"/>
<path d="M256.021 256.188C256.308 256.475 256.693 257.539 256.794 257.932C257.103 259.14 256.373 260.37 255.164 260.679L235.186 265.778C234.361 265.989 233.521 265.491 233.311 264.667L233.098 263.836C233.098 263.836 231.471 261.59 232.719 257.992C232.719 257.992 235.864 259.757 238.678 255.017L239.276 252.715L248.849 256.551L253.461 255.96C254.47 255.83 255.302 255.47 256.021 256.188Z" fill="#2F2E41"/>
<path d="M189.919 66.9028L189.604 64.6137L193.356 55.4572L203.665 54.3126L205.891 67.4213L189.919 66.9028Z" fill="#FFB6B6"/>
<path opacity="0.1" d="M189.919 66.9028L189.604 64.6137L193.356 55.4572L203.665 54.3126L205.891 67.4213L189.919 66.9028Z" fill="black"/>
<path d="M177.892 131.571L173.31 144.161L176.747 151.028L193.929 250.605H205.351L203.092 162.474L229.438 250.605H240.743L231.652 191.088L224.856 136.149L220.734 133.604L200.801 122.414L177.892 131.571Z" fill="#2F2E41"/>
<path d="M207.101 140.155L200.229 141.299L191.065 119.553H211.683L207.101 140.155Z" fill="#E6E6E6"/>
<path d="M220.847 134.432L207.101 140.155L202.519 129.854L200.228 141.299L176.174 133.562L179.61 119.553L176.174 73.7702L188.304 65.6895L189.919 64.6137L204.81 65.7582L206.116 66.4679L215.119 71.4811L217.41 109.252L220.847 134.432Z" fill="#2F2E41"/>
<path d="M206.116 66.4679L199.656 93.8L188.304 65.6895L189.919 64.6137L204.81 65.7582L206.116 66.4679Z" fill="#E6E6E6"/>
<path d="M195.074 64.6137L192.783 68.5561L195.074 69.8702L193.928 93.8711L198.51 100.095L203.092 90.8962L199.656 69.8702L200.801 64.6137H195.074Z" fill="#2F2E41"/>
<path d="M198.51 62.3246C204.52 62.3246 209.392 57.4564 209.392 51.4512C209.392 45.446 204.52 40.5779 198.51 40.5779C192.5 40.5779 187.628 45.446 187.628 51.4512C187.628 57.4564 192.5 62.3246 198.51 62.3246Z" fill="#FFB6B6"/>
<path d="M191.556 52.405L193.907 53.4303L194.933 47.2783C194.933 47.2783 199.038 45.2276 202.116 46.253C205.195 47.2783 210.325 46.253 210.325 46.253C210.325 46.253 210.325 35.9996 203.142 35.9996C195.96 35.9996 188.777 37.0249 188.777 40.101C188.777 43.177 185.698 46.253 185.698 46.253C185.698 46.253 181.594 52.405 185.698 56.5064C189.803 60.6077 191.855 60.6077 191.855 60.6077L191.556 52.405Z" fill="#2F2E41"/>
<path d="M170.441 159.172C170.322 163.594 172.509 167.24 175.325 167.315C178.141 167.391 180.52 163.868 180.639 159.444C180.711 157.678 180.358 155.92 179.61 154.318L179.879 135.577L171.075 135.638L171.745 154.107C170.912 155.667 170.465 157.404 170.441 159.172Z" fill="#FFB6B6"/>
<path d="M181.334 71.4596C181.334 71.4596 173.889 69.1705 170.452 76.0378C167.016 82.9052 171.598 152.724 171.598 152.724H183.156L180.088 103.507L181.334 71.4596Z" fill="#E6E6E6"/>
<path d="M466.949 201.531L439.184 193.038C438.569 192.85 437.925 192.781 437.285 192.836L296.566 204.803C294.559 204.973 294.055 207.677 295.865 208.559L300.373 210.753H300.252V315.794H304.5V212.762L318.627 219.639C319.708 220.165 320.914 220.38 322.11 220.259L323.613 220.108V315.794H327.861V219.679L436.7 208.693V315.794H440.948V208.265L458.999 206.443V315.794H463.246V206.014L466.54 205.682C468.852 205.448 469.171 202.211 466.949 201.531Z" fill="#3F3D56"/>
<path d="M337.417 204.387C340.072 204.387 379.36 199.612 379.36 199.612L385.2 207.57L344.319 215.528L337.417 204.387Z" fill="white"/>
<path d="M380.537 311.715L373.711 311.703L370.509 285.389L380.583 285.407L380.537 311.715Z" fill="#A0616A"/>
<path d="M357.151 311.52C356.938 311.877 356.824 313.032 356.823 313.448C356.821 314.726 357.856 315.764 359.136 315.766L380.274 315.803C381.147 315.804 381.856 315.098 381.858 314.226L381.859 313.347C381.859 313.347 382.909 310.705 380.762 307.444C380.762 307.444 378.082 309.99 374.09 305.988L372.915 303.852L364.369 310.074L359.637 310.648C358.602 310.774 357.685 310.625 357.151 311.52Z" fill="#2F2E41"/>
<path d="M417.172 299.479L411.786 303.537L393.555 284.713L401.503 278.722L417.172 299.479Z" fill="#A0616A"/>
<path d="M398.629 313.264C398.675 313.673 399.274 314.65 399.522 314.978C400.283 315.987 401.719 316.188 402.728 315.427L419.405 302.856C420.094 302.337 420.231 301.358 419.712 300.67L419.188 299.976C419.188 299.976 418.439 297.269 414.8 295.979C414.8 295.979 414.208 299.583 408.674 298.809L406.472 297.826L403.454 307.823L400.068 311.095C399.327 311.811 398.516 312.241 398.629 313.264Z" fill="#2F2E41"/>
<path d="M402.906 163.483C402.906 169.773 397.803 174.871 391.509 174.871C385.214 174.871 380.111 169.773 380.111 163.483C380.111 157.193 385.214 152.094 391.509 152.094C397.803 152.094 402.906 157.193 402.906 163.483Z" fill="#A0616A"/>
<path d="M401.832 229.147C401.832 229.147 359.869 226.773 357.493 231.52C355.118 236.267 370.335 301.471 370.335 301.471L383.91 298.627L377.288 252.881C377.288 252.881 412.305 262.148 417.056 251.072C421.807 239.996 420.439 235.871 420.439 235.871L401.832 229.147Z" fill="#2F2E41"/>
<path d="M412.584 221.179C412.584 221.179 371.487 229.982 370.453 235.188C369.419 240.393 401.355 299.252 401.355 299.252L413.695 292.922L395.197 250.556C395.197 250.556 431.421 250.236 433.07 238.299C434.719 226.361 432.308 222.746 432.308 222.746L412.584 221.179Z" fill="#2F2E41"/>
<path d="M417.272 176.535H397.528L384.018 198.687C384.018 198.687 380.85 213.003 384.018 214.548C387.185 216.093 387.185 232.707 387.185 232.707L420.439 235.871C420.439 235.871 425.19 186.029 423.606 181.282C422.022 176.535 417.272 176.535 417.272 176.535Z" fill="#6C63FF"/>
<path d="M385.997 191.171L384.018 214.548L361.753 205.106L356.44 202.436C355.399 201.079 354.048 199.992 352.501 199.265C348.653 197.391 344.567 197.855 343.374 200.301C342.181 202.747 344.332 206.249 348.179 208.122C349.707 208.892 351.396 209.285 353.107 209.268L368.655 218.092L368.673 218.057L368.742 218.18L393.123 228.355L398.733 197.668L385.997 191.171Z" fill="#A0616A"/>
<path d="M383.622 165.063C383.622 165.063 371.745 166.645 376.496 156.36C376.496 156.36 375.771 150.785 379.301 150.408C382.83 150.031 387.581 143.702 387.581 143.702C387.581 143.702 398.472 138.164 404.111 143.702C409.75 149.24 426.377 181.677 426.377 181.677L415.292 193.545C415.292 193.545 408.628 176.04 400.876 178.067C393.123 180.095 385.997 186.141 385.997 186.141C385.997 186.141 378.129 182.206 381.667 178.777C385.205 175.348 383.622 165.063 383.622 165.063Z" fill="#2F2E41"/>
<path d="M399.457 182.468C399.457 182.468 393.915 175.348 389.956 180.886C385.997 186.424 382.83 193.545 382.83 193.545L398.665 199.083L399.457 182.468Z" fill="#6C63FF"/>
<path d="M459.582 314.22L441.184 255.788L441.186 255.788H441.229L441.155 255.693L441.153 255.691L439.843 251.529L439.843 251.528C441.84 249.809 443.199 247.353 443.469 244.525L435.06 198.307C435.638 192.238 430.982 186.933 424.882 186.715L405.907 186.668C400.512 186.477 395.84 190.371 395.054 195.708L394.635 198.541L388.821 238.058C388.609 239.48 388.694 240.881 389.028 242.191L384.845 242.738L383.576 242.907L378.559 243.56L378.543 243.565L377.916 243.645H377.237V260.621H377.279V314.882C377.279 315.232 377.566 315.519 377.916 315.519C378.272 315.519 378.559 315.232 378.559 314.882V260.621H386.002L393.43 314.818C393.478 315.137 393.748 315.37 394.067 315.37C394.093 315.37 394.125 315.37 394.152 315.365C394.502 315.317 394.746 314.993 394.699 314.643L387.298 260.621H423.013C426.559 260.621 429.845 259.497 432.521 257.571L446.682 314.719C446.755 315.008 447.015 315.2 447.301 315.2C447.353 315.2 447.406 315.194 447.459 315.181C447.801 315.094 448.008 314.746 447.921 314.404L433.624 256.703C433.814 256.545 434.004 256.376 434.184 256.202L439.868 255.868L458.362 314.603C458.448 314.876 458.7 315.051 458.972 315.051C459.035 315.051 459.1 315.041 459.164 315.021C459.501 314.915 459.688 314.556 459.582 314.22ZM438.627 252.435C438.675 252.409 438.718 252.377 438.76 252.35L438.897 252.784L438.627 252.435Z" fill="#E6E6E6"/>
<path d="M98.5806 215.176L110.963 207.308L115.996 210.343L98.5806 230.339V215.176Z" fill="#FFB6B6"/>
<path d="M81.6484 184.722C81.6484 184.722 73.4243 186.656 77.2945 197.774C81.1647 208.892 93.7428 232.095 97.613 230.645C101.483 229.195 101.967 214.693 101.967 214.693C101.967 214.693 101.483 215.176 99.5481 213.243C97.613 211.309 97.613 212.192 97.613 210.059C97.613 207.925 96.0303 206.344 96.0303 206.344L94.2266 202.608C94.2266 202.608 94.2266 185.206 86.97 184.239C79.7134 183.272 81.6484 184.722 81.6484 184.722Z" fill="#E6E6E6"/>
<path d="M120.072 209.823C123.284 206.613 124.279 202.405 122.296 200.423C120.312 198.441 116.1 199.435 112.888 202.645C109.677 205.854 108.681 210.062 110.665 212.044C112.649 214.027 116.86 213.032 120.072 209.823Z" fill="#FFB6B6"/>
<path d="M49.6152 248.773L58.0641 262.746L107.301 259.835L94.1904 242.951L49.6152 248.773Z" fill="#E6E6E6"/>
<path d="M64.3272 314.128C64.0404 314.128 63.7906 313.917 63.7507 313.625L49.0379 206.255C48.9943 205.936 49.2173 205.643 49.5361 205.599C49.8548 205.553 50.1487 205.778 50.1925 206.097L64.9052 313.467C64.9489 313.786 64.7258 314.079 64.407 314.123C64.3801 314.126 64.3535 314.128 64.3272 314.128Z" fill="#E6E6E6"/>
<path d="M49.6153 314.265C49.2935 314.265 49.0326 314.004 49.0326 313.682V206.197C49.0326 205.875 49.2935 205.615 49.6153 205.615C49.9371 205.615 50.198 205.875 50.198 206.197V313.682C50.198 314.004 49.9371 314.265 49.6153 314.265Z" fill="#E6E6E6"/>
<path d="M123.47 313.837C123.222 313.837 122.993 313.678 122.914 313.43L88.0992 202.858C88.0026 202.551 88.1731 202.224 88.4801 202.127C88.787 202.031 89.1143 202.201 89.2107 202.508L124.026 313.08C124.123 313.387 123.952 313.714 123.645 313.81C123.587 313.829 123.528 313.837 123.47 313.837Z" fill="#E6E6E6"/>
<path d="M112.836 313.974C112.576 313.974 112.339 313.798 112.271 313.535L88.0901 215.947C88.0109 215.636 88.1994 215.319 88.5112 215.239C88.824 215.161 89.1402 215.348 89.2196 215.66L113.401 313.248C113.48 313.559 113.292 313.876 112.98 313.956C112.932 313.968 112.883 313.974 112.836 313.974Z" fill="#E6E6E6"/>
<path d="M49.6152 207.909L89.966 207.289L97.3952 249.646H50.1979L49.6152 207.909Z" fill="#E6E6E6"/>
<path d="M111.624 270.192L101.455 288.082L113.262 290.679L118.185 277.956L111.624 270.192Z" fill="#FFB6B6"/>
<path d="M105.108 284.705C105.108 284.705 104.712 281.787 102.389 282.713C100.066 283.639 93.3617 287.079 93.3617 287.079C93.3617 287.079 110.849 315.472 114.167 314.149C117.486 312.826 113.513 304.801 113.513 304.801L114.39 290.614L105.108 284.705Z" fill="#2F2E41"/>
<path d="M66.6514 235.479C66.6514 235.479 63.0231 252.157 74.1499 257.957C85.2767 263.758 123.253 249.498 123.253 249.498L105.837 275.573L117.932 280.435C117.932 280.435 145.507 244.18 143.572 238.38C141.636 232.579 128.575 232.095 128.575 232.095L99.0643 233.546L91.3239 231.129L66.6514 235.479Z" fill="#2F2E41"/>
<path d="M96.58 278.132L80.5933 291.098L90.6451 297.81L99.8637 287.749L96.58 278.132Z" fill="#FFB6B6"/>
<path d="M85.2252 289.28C85.2252 289.28 85.9196 286.419 83.4186 286.437C80.9177 286.454 73.4198 287.221 73.4198 287.221C73.4198 287.221 79.3685 320.025 82.9414 320C86.5142 319.975 85.7365 311.055 85.7365 311.055L91.7194 298.16L85.2252 289.28Z" fill="#2F2E41"/>
<path d="M67.3317 229.447C67.3317 229.447 57.8788 243.661 66.1304 253.11C74.3819 262.559 114.948 263.085 114.948 263.085L89.2303 281.04L98.7248 289.966C98.7248 289.966 137.612 266.223 137.922 260.116C138.232 254.01 126.242 248.81 126.242 248.81L98.2266 239.431L91.8971 234.365L67.3317 229.447Z" fill="#2F2E41"/>
<path d="M91.6154 196.522C91.6154 196.522 82.4237 193.138 78.0697 193.138C77.6537 193.138 77.2425 193.187 76.8313 193.274C74.0447 193.863 71.4807 196.256 70.252 197.561C69.773 198.074 69.4973 198.417 69.4973 198.417C69.4973 198.417 69.5263 198.084 69.5843 197.499C69.8698 194.424 70.9244 184.336 72.8159 177.877C73.4932 175.572 74.2721 173.73 75.1671 172.836C77.2522 170.747 78.2149 168.243 78.6599 166.377C79.0373 164.777 79.0373 163.651 79.0373 163.651L75.5106 162.133L74.8575 157.87C74.7414 158.372 74.2044 159.354 72.3999 161.234C72.2451 161.394 72.0758 161.529 71.8968 161.645C69.2941 163.279 63.9871 160.436 61.1279 158.648C62.318 154.515 64.4757 150.735 68.3942 150.116C77.586 148.666 77.586 143.348 83.3913 149.149C83.8702 149.628 84.354 150.087 84.8377 150.532C86.6954 154.08 87.3727 158.836 87.6146 162.143C87.7888 164.458 87.7452 166.068 87.7452 166.068C87.7452 166.068 90.1641 180.57 94.0343 183.47C97.9045 186.371 91.6154 196.522 91.6154 196.522Z" fill="#2F2E41"/>
<path d="M73.7157 173.319L67.1791 182.9L81.9399 186.854V173.319H73.7157Z" fill="#FFB6B6"/>
<path opacity="0.1" d="M73.7157 173.319L67.1791 182.9L81.9399 186.854V173.319H73.7157Z" fill="black"/>
<path d="M82.8579 182.547L68.8284 176.746C68.8284 176.746 49.9612 184.964 51.4125 200.916C52.8638 216.868 66.4095 244.422 66.4095 244.422L93.5009 232.821L90.5983 201.883L82.8579 182.547Z" fill="#E6E6E6"/>
<path d="M76.8427 177.596C83.6785 177.596 89.2201 172.059 89.2201 165.229C89.2201 158.398 83.6785 152.861 76.8427 152.861C70.0069 152.861 64.4653 158.398 64.4653 165.229C64.4653 172.059 70.0069 177.596 76.8427 177.596Z" fill="#FFB6B6"/>
<path d="M93.5504 160.751C91.1316 163.168 89.1964 165.585 89.1964 165.585L88.2289 161.717C88.2289 161.717 88.0064 161.882 87.6145 162.143C86.0809 163.187 81.964 165.812 78.6598 166.377C77.1892 166.629 75.883 166.469 75.0315 165.585C73.227 163.704 72.6901 162.723 72.574 162.22L71.9208 166.484L68.3941 168.002C68.3941 168.002 68.3941 173.309 72.2643 177.186C72.453 177.375 72.6369 177.607 72.8158 177.877C74.6639 180.662 75.9894 187.478 76.8312 193.274C77.5762 198.427 77.9342 202.768 77.9342 202.768C77.9342 202.768 74.272 198.185 70.2518 197.561C70.0293 197.528 69.8067 197.503 69.5842 197.499C69.5117 197.489 69.4343 197.489 69.3617 197.489C65.0077 197.489 55.816 200.873 55.816 200.873C55.816 200.873 49.5269 190.721 53.3971 187.821C57.2673 184.921 59.6862 170.419 59.6862 170.419C59.6862 170.419 59.5265 164.212 61.1278 158.648C62.3179 154.515 64.4756 150.735 68.3941 150.116C77.5859 148.666 77.5859 143.348 83.3912 149.149C83.8701 149.628 84.3539 150.087 84.8376 150.532C90.2462 155.501 95.771 158.532 93.5504 160.751Z" fill="#2F2E41"/>
<path d="M39.2644 225.64H34.6676V316.356H39.2644V225.64Z" fill="#3F3D56"/>
<path d="M150.736 225.64H146.139V316.356H150.736V225.64Z" fill="#3F3D56"/>
<path d="M121.431 187.173H90.9779V217.602H121.431V187.173Z" fill="#6C63FF"/>
<path d="M73.4243 219.527L85.8063 211.659L90.8402 214.693L73.4243 234.689V219.527Z" fill="#FFB6B6"/>
<path d="M56.4922 189.073C56.4922 189.073 48.268 191.007 52.1382 202.125C56.0084 213.243 68.5866 236.446 72.4568 234.996C76.327 233.546 76.8107 219.044 76.8107 219.044C76.8107 219.044 76.327 219.527 74.3919 217.593C72.4568 215.66 72.4568 216.543 72.4568 214.41C72.4568 212.276 70.874 210.695 70.874 210.695L69.0703 206.959C69.0703 206.959 69.0703 189.556 61.8137 188.59C54.5571 187.623 56.4922 189.073 56.4922 189.073Z" fill="#E6E6E6"/>
<path d="M94.9158 214.173C98.1275 210.964 99.123 206.756 97.1393 204.773C95.1556 202.791 90.9439 203.786 87.7321 206.995C84.5204 210.204 83.5249 214.413 85.5086 216.395C87.4923 218.377 91.7041 217.382 94.9158 214.173Z" fill="#FFB6B6"/>
<path d="M159.929 222.196H20.8773V232.53H159.929V222.196Z" fill="#3F3D56"/>
<path d="M301.205 139.518H280.669C279.041 139.518 277.721 140.837 277.721 142.463V150.927C277.721 152.553 279.041 153.872 280.669 153.872H301.205C302.833 153.872 304.153 152.553 304.153 150.927V142.463C304.153 140.837 302.833 139.518 301.205 139.518Z" fill="#3F3D56"/>
<path d="M344.3 147.981H323.764C322.136 147.981 320.816 149.3 320.816 150.927V150.927C320.816 152.553 322.136 153.872 323.764 153.872H344.3C345.928 153.872 347.247 152.553 347.247 150.927V150.927C347.247 149.3 345.928 147.981 344.3 147.981Z" fill="#6C63FF"/>
</g>
<defs>
<clipPath id="clip0_34_2">
<rect width="489" height="320" fill="white"/>
</clipPath>
</defs>
</svg>
